<svg xmlns="http://www.w3.org/2000/svg" viewBox="0 0 55 55"><defs><style>.cls-1{fill:#fff;}</style></defs><title>linkedin</title><g id="Layer_2" data-name="Layer 2"><g id="Layer_1-2" data-name="Layer 1"><g id="_Group_" data-name="&lt;Group&gt;"><circle id="_Path_" data-name="&lt;Path&gt;" cx="27.5" cy="27.5" r="27.5"/><path id="_Compound_Path_" data-name="&lt;Compound Path&gt;" class="cls-1" d="M20.1,40.2V23.4H14.9V40.2Zm0-22.7a2.49,2.49,0,0,0-2.7-2.6,2.55,2.55,0,0,0-2.7,2.6,2.47,2.47,0,0,0,2.6,2.6h0A2.63,2.63,0,0,0,20.1,17.5Zm8.4,22.7V30.6a3.18,3.18,0,0,1,.2-1.4,3.09,3.09,0,0,1,2.9-2.1c2.1,0,3.3,1.2,3.3,3.5v9.6h5.2V30.4c0-5.3-2.8-7.7-6.5-7.7a5.71,5.71,0,0,0-5.2,2.9V23.4H23.2c.1,1.6,0,16.9,0,16.9h5.3Z"/></g></g></g></svg>