<svg xmlns="http://www.w3.org/2000/svg" viewBox="0 0 500 500"><defs><style>.cls-1,.cls-4{fill:#fff;}.cls-1,.cls-2,.cls-3,.cls-4{stroke:#000;}.cls-1{stroke-width:5px;}.cls-2{fill:none;}.cls-3,.cls-4{stroke-width:4px;}</style></defs><title>avatar</title><g id="Default"><path class="cls-1" d="M120.41,234c-2.57-5.09-10.54-14.87-16.49-12.61-3.87,1.47-6.88,8-7.82,16.45-1.07,9.7.6,21.88,2.42,32,1.86,10.36,3.87,18.49,4,26.32.13,6.5-1,12.79.11,18.24,2,9.67,11.08,16.74,22.09,11.33"/><path class="cls-1" d="M379.59,234c2.57-5.09,10.54-14.87,16.49-12.61,3.87,1.47,6.88,8,7.82,16.45,1.07,9.7-.6,21.88-2.42,32-1.86,10.36-3.87,18.49-4,26.32-.13,6.5,1,12.79-.11,18.24-2,9.67-11.08,16.74-22.09,11.33"/><path class="cls-1" d="M250,43.5c7.37-.08,34,4.32,61,18.69,20.4,10.86,41,27.4,54.48,50.8,12.87,22.35,19.25,51,19.5,71.37.21,16.82-3.72,28.08-5,38.48-1,8.61-.21,16.63.53,25.8a259.21,259.21,0,0,1,.87,33.47A241.42,241.42,0,0,1,376,322.45c-3,13.09-6.89,22.83-12,35.37-5.56,13.67-12.56,30.65-24.67,46.35-24.14,31.26-68.58,57.39-89.37,51.49-20.79,5.89-65.24-20.23-89.37-51.49-12.12-15.69-19.11-32.68-24.67-46.35-5.1-12.54-9-22.28-12-35.37a241.43,241.43,0,0,1-5.39-40.33,259.25,259.25,0,0,1,.87-33.47c.73-9.17,1.55-17.19.53-25.8-1.24-10.39-5.18-21.65-5-38.48.26-20.41,6.63-49,19.5-71.37C148,89.6,168.59,73.05,189,62.19,216,47.82,242.63,43.42,250,43.5Z"/><path class="cls-2" d="M120.41,234c2.28,36.62,5.23,65.56,20,105.56,6.45,17.46,15.14,37,24.4,40.65,7.68,3,15.74-5,18.45-12.52,2.76-7.71-.06-15,7.14-24,6.75-8.45,22.31-18.43,32.31-23.77,15.34-8.19,17.59-5.48,27.3-6,9.71.55,12-2.16,27.3,6,10,5.34,25.56,15.32,32.31,23.77,7.2,9,4.38,16.27,7.14,24,2.71,7.55,10.77,15.53,18.45,12.52,9.25-3.62,18-23.19,24.4-40.65,14.76-40,17.71-68.94,20-105.56"/><path class="cls-2" d="M250,380.64c7.26,2,19-1.15,29.74-5.31,5.48-2.12,10.72-4.5,15.09-7.94,4.58-3.6,8.22-8.36,4.82-11.68-3.21-3.13-12.68-5-19-7.18-13.31-4.65-12.58-10.9-30.66-10.07-18.08-.83-17.35,5.42-30.66,10.07-6.31,2.21-15.79,4.05-19,7.18-3.4,3.32.24,8.08,4.82,11.68,4.38,3.44,9.61,5.82,15.09,7.94C231,379.5,242.74,382.67,250,380.64Z"/><path class="cls-3" d="M120.41,234c-.13,4.72-.56,9.5-1,14.64a259.23,259.23,0,0,0-.87,33.47A241.42,241.42,0,0,0,124,322.45c3,13.09,6.89,22.83,12,35.37,5.56,13.67,12.56,30.65,24.67,46.35,24.14,31.26,68.58,57.39,89.37,51.49,20.79,5.89,65.24-20.23,89.37-51.49,12.12-15.69,19.11-32.68,24.67-46.35,5.1-12.54,9-22.28,12-35.37a241.42,241.42,0,0,0,5.39-40.33,259.23,259.23,0,0,0-.87-33.47c-.41-5.14-.85-9.92-1-14.64-2.28,36.62-5.23,65.56-20,105.56-6.45,17.46-15.14,37-24.4,40.65-7.68,3-15.74-5-18.45-12.52-2.76-7.71.06-15-7.14-24-6.75-8.45-22.31-18.43-32.31-23.77-15.34-8.19-17.59-5.48-27.3-6-9.71.55-12-2.16-27.3,6-10,5.34-25.56,15.32-32.31,23.77-7.2,9-4.38,16.27-7.14,24-2.71,7.55-10.77,15.53-18.45,12.52-9.25-3.62-18-23.19-24.4-40.65C125.64,299.56,122.69,270.63,120.41,234Z"/><path class="cls-4" d="M250,380.64c7.26,2,19-1.15,29.74-5.31,5.48-2.12,10.72-4.5,15.09-7.94,4.58-3.6,8.22-8.36,4.82-11.68-3.21-3.13-12.68-5-19-7.18-13.31-4.65-12.58-10.9-30.66-10.07-18.08-.83-17.35,5.42-30.66,10.07-6.31,2.21-15.79,4.05-19,7.18-3.4,3.32.24,8.08,4.82,11.68,4.38,3.44,9.61,5.82,15.09,7.94C231,379.5,242.74,382.67,250,380.64Z"/></g></svg>