<svg xmlns="http://www.w3.org/2000/svg" viewBox="0 0 72 50">
    <path fill="#626262" d="M53.14 48.92a6.24 6.24 0 1 1 3.57-11.37v-1h3v12.11h-3v-.85a6.23 6.23 0 0 1-3.57 1.11zm.14-9.69a3.45 3.45 0 1 0 3.45 3.45 3.45 3.45 0 0 0-3.45-3.45zm-14.17 9.69a6.24 6.24 0 1 1 3.57-11.37v-5.07h3v16.18h-3v-.85a6.31 6.31 0 0 1-3.57 1.11zm.14-9.69a3.45 3.45 0 1 0 3.45 3.45 3.45 3.45 0 0 0-3.45-3.45zm-18.63 9.69a6.24 6.24 0 1 1 3.56-11.37v-5.07h3v16.18h-3v-.85a6.27 6.27 0 0 1-3.56 1.11zm.14-9.69a3.45 3.45 0 1 0 3.45 3.45 3.46 3.46 0 0 0-3.45-3.45zM6.59 48.92a6.24 6.24 0 1 1 3.56-11.37v-1h3v12.11h-3v-.85a6.3 6.3 0 0 1-3.56 1.11zm.14-9.69a3.45 3.45 0 1 0 3.44 3.45 3.45 3.45 0 0 0-3.44-3.45zm59.74 9.66c-3.34 0-5.56-1.63-5.65-4.15h3.07c0 .91.72 1.89 2.62 1.89 1.41 0 1.91-.64 1.91-1.19s-.45-1-1.63-1.2L65.21 44c-1.84-.34-4.13-.76-4.13-3.54 0-2.38 2-4 5-4S71 38 71.19 40.39h-3c-.06-1-.85-1.65-2.18-1.65-1.17 0-1.86.43-1.86 1.16s.9 1 2.07 1.2l1.92.38c2.41.52 3.5 1.52 3.5 3.52 0 2.91-2.67 3.94-5.17 3.94zm-34.82-.23h-3V36.58h3zm0-13.18h-3v-3l-8.24-14.34 10.51-6 11.76 20.33h-11v3zm29.53-3h-14L32.54 7.13 43 1.08l18.17 31.39zm-37 0h-14l-2-3.57 10.49-6 5.55 9.59z"/>
</svg>
