<svg xmlns="http://www.w3.org/2000/svg" viewBox="0 0 400 250">
    <path fill="#626262" d="M8.59 248c2.69-4.83 4.61-8.46 6.69-12Q71.43 140.18 127.6 44.39c4.37-7.46 8.57-15 13.22-22.33C148.93 9.35 160 1.94 175.8 2c69.46.2 138.93.09 208.4.09h7.21c-1.38 2.8-2.12 4.6-3.11 6.25q-41.49 69.39-83 138.76c-15.55 26-31.2 51.91-46.58 78-9.25 15.69-22.86 23-40.88 23q-101.2-.09-202.4 0zM261.71 75.44h51c8.1 0 12-2.33 12.1-7.19s-4-7.46-11.9-7.46H210.5c-2.89 0-5.32 0-7.19-3.11-9-14.76-26.84-14.65-36.28-.12a8.22 8.22 0 0 1-5.36 3.07c-4.11.48-8.32 0-12.47.27-4.63.33-7.19 3.22-7.1 7.4s2.7 6.84 7.42 7.05a119.88 119.88 0 0 0 12 0c3.15-.17 5.15.86 7 3.54 8.42 12.07 25.36 12 33.74-.17a6.84 6.84 0 0 1 6.52-3.35c17.62.12 35.28.07 52.93.07zm-88.62 41.23h-55.44c-5.23 0-8.7 2.8-8.76 6.81s3.29 7.21 8.33 7.61c2 .15 4 .08 6 .08h104.39c3.54 0 5.94.67 8.16 4.08 6.44 9.9 20.46 12.79 28.7 4.83 6.17-5.95 11.67-10 20.62-9.37 3.82.27 6.42-3.38 6-7.73-.4-4.07-2.82-6.24-7-6.27a54.4 54.4 0 0 0-6 0c-3.82.39-6.25-.85-8.56-4.26-8.66-12.72-25.82-12.46-34.19.47-1.94 3-4 3.83-7.3 3.81-18.32-.12-36.64-.06-54.95-.06zm26.14 69.84h47.48c2 0 4.46.38 5.84-.62 2.19-1.57 4.63-3.93 5.17-6.36.71-3.25-1.48-6.15-5.05-6.95a34.66 34.66 0 0 0-7.42-.63h-94.47c-3.45 0-5.76-.88-7.92-3.85-9.07-12.47-24.93-12-34.14.44a9.18 9.18 0 0 1-6 3.2c-5.63.44-11.32.08-17 .17-6.47.1-9.3 2.35-9.35 7.21s2.88 7.25 9.2 7.34c5.33.08 10.67.18 16 0 3.35-.12 5.35.93 7.2 4a20.13 20.13 0 0 0 34.74 0c1.85-3 3.91-4 7.25-4 16.14.11 32.31.04 48.47.05z"/>
</svg>
