<svg xmlns="http://www.w3.org/2000/svg" viewBox="0 0 1100 236">
    <path fill="#626262" d="M550.44 26.62h35c24.49-.44 43.73 6.12 57.28 19.68s20.55 36.72 21 70c-.44 33.23-7 56.84-21 70-13.55 13.55-32.79 19.67-57.28 19.23h-35zM539.51 6.51a12.55 12.55 0 0 0-7.87 3.06 10.53 10.53 0 0 0-3.06 7.87v197.18a12.53 12.53 0 0 0 3.06 7.87 10.52 10.52 0 0 0 7.87 3.07h45.9c31.48.43 56-7.87 73.89-24.49 17.93-17 26.67-45 27.11-84.82-.41-39.79-9.18-68.2-27.11-85.25S616.89 5.64 585.41 6.07h-45.9z"/>
    <path fill="#626262" d="M801.84 232.55c32.35 0 57.27-9.62 75.2-28.42q26.88-28.86 27.54-86.57c-.44-38.91-9.62-68.2-27.54-87-17.93-19.24-43.29-28.42-75.2-28.42-32.36 0-57.28 9.62-75.21 28.42-17.92 19.23-27.1 48.09-27.54 87 .44 38.48 9.62 67.77 27.54 86.57 17.93 19.24 42.85 28.42 75.21 28.42zm0-210.3c25.35 0 45 7.87 58.58 23.61 14 15.74 21 39.79 21 71.7s-7 56-21 71.71-33.23 23.61-58.58 23.17c-25.36 0-45-7.87-58.59-23.17-14-15.74-21-39.35-21-71.71s7-56 21-71.7c13.55-16.18 33.23-23.61 58.59-23.61z"/>
    <path fill="#626262" d="M1019.13 232.11a100.73 100.73 0 0 0 42.85-9.62c13.12-6.12 23.61-14.42 31-25.35.44-.88 1.31-1.75 1.31-3.06a8.5 8.5 0 0 0 .44-3.5c0-3.06-.87-5.69-3.06-7.43a10.55 10.55 0 0 0-7.43-3.07 19.15 19.15 0 0 0-4.37.88 6.23 6.23 0 0 0-3.94 3.5 57.33 57.33 0 0 1-25.36 20.11 80.2 80.2 0 0 1-31.91 6.56c-25.36.43-45-7-58.59-21.43-13.55-14.86-20.55-38.91-20.55-72.57 0-31.92 7-56 20.55-71.27s33.23-23.17 58.59-23.17a77.79 77.79 0 0 1 33.66 7.87q15.09 7.86 23.61 19.67a14.12 14.12 0 0 0 3.94 3.5 15.41 15.41 0 0 0 4.37.87c3.06 0 5.68-.87 7.43-3.06s3.06-4.37 3.06-7.43c0-2.19-.87-4.37-2.19-7-7.87-10.93-18.36-19.23-31-25.35s-27.11-9.19-42.85-9.19c-31.91 0-56.83 9.19-74.76 28.42-17.93 18.8-27.11 47.66-27.11 86.57.44 40.23 9.18 69.08 27.11 87.45 18.36 18.36 43.29 27.54 75.2 27.1z"/>
    <path fill="#626262" d="M335.33 171.78c-.44 15.3-4.38 26.67-12.25 34.1s-17.92 10.93-30.6 10.93q-22.31 0-34.1-14.43c-7.87-9.62-11.81-24.92-11.81-45s3.94-35 11.81-44.6 19.23-14.42 34.1-14.42c10 .43 18.36 2.62 24.48 7.43a59.37 59.37 0 0 1 14 13.55c3.06 4.37 4.38 7 4.38 7.43zm-44.16-92.26c-21 0-37.17 6.13-48.53 18.81s-16.62 32.35-17.06 59c0 26.67 6.12 46.34 17.49 59s28 19.24 49 19.24q28.2 0 45.91-15.74c11.8-10.49 17.49-26.67 17.92-48.09V10.88a9.58 9.58 0 0 0-3.06-7.43 10.52 10.52 0 0 0-7.46-3.06A9.58 9.58 0 0 0 338 3.45a10.54 10.54 0 0 0-3.06 7.43V101q-5.94-7.92-17.1-14.48c-7.43-4.37-16.18-6.52-26.67-7z"/>
    <path fill="#626262" d="M181.43 156c5.24 0 10 5.24 10 10.05 0 5.25-5.24 10.5-10 10.5H65.56c-5.24 0-10.49-5.25-10.49-10.5S60.32 156 65.56 156z"/>
    <path fill="#626262" d="M181.43 93.52c5.24 0 10 5.24 10 10 0 5.25-5.24 10.5-10 10.5H15.72c-5.25 0-10.49-5.25-10.49-10.5s5.24-10 10.49-10z"/>
    <path fill="#626262" d="M181.43 214.62c5.24 0 10 5.25 10 10.06 0 5.25-5.24 10.49-10 10.49H15.72c-5.25 0-10.49-5.24-10.49-10.49s5.24-10.06 10.49-10.06z"/>
    <path fill="#626262" d="M438.51 79.52c-21 0-37.6 6.13-49.84 18.81s-18.37 32.35-18.37 59q.66 40 18.37 59c11.8 12.68 28.85 19.24 49.84 19.24 21.42 0 38-6.12 49.84-19.24s17.93-32.35 18.36-59q0-40-18.36-59c-12.24-12.68-28.86-18.81-49.84-18.81zm0 137.29c-14.87 0-26.67-4.37-34.54-14-8.31-9.62-12.24-24.48-12.24-45.47 0-20.55 4.37-35.42 12.24-45 8.31-9.62 19.67-14.43 34.54-14.43s26.67 4.81 34.54 14.43c8.31 9.61 12.24 24.48 12.24 45s-4.37 35.85-12.24 45.47c-8.31 9.63-19.68 14.44-34.54 14z"/>
</svg>
