<svg viewBox="0 0 175 175" xmlns="http://www.w3.org/2000/svg">
    <path fill="none" d="M0 0h175v175H0z" />
    <path d="M96.304 74.964l5.401-52.331c0-1.929-1.712-3.6-3.688-3.6H76.803c-1.976 0-3.689 1.671-3.689 3.6l5.401 52.46c.263 1.285 1.45 2.185 2.899 2.185h.528c1.713-.515 3.556-.772 5.534-.772 1.976 0 3.821.257 5.534.772h.526c1.32 0 2.505-1.029 2.768-2.314zM73.245 78.692L23.968 57.477c-1.978-.514-3.954.514-4.744 2.314l-6.59 19.672c-.526 1.928.527 3.985 2.373 4.628L67.71 95.278c1.319.129 2.635-.642 3.031-1.93 0-.129.13-.386.13-.514 0-1.671.264-3.47.923-5.4.66-1.799 1.45-3.472 2.505-4.886.13-.129.13-.257.263-.514.527-1.286 0-2.7-1.318-3.342zM69.556 101.45l-35.97 39.344c-1.186 1.671-.79 3.857.79 5.014l17.13 12.085c1.712 1.157 3.951.771 5.137-.771l27.143-45.514c.528-1.288.132-2.702-1.054-3.473-.132-.128-.263-.128-.396-.257-1.712-.514-3.292-1.414-4.874-2.57-1.582-1.158-2.899-2.443-3.952-3.729-.133-.128-.265-.257-.396-.388-.923-.77-2.505-.642-3.558.26zM90.77 111.736l27.143 45.514c1.186 1.545 3.558 1.929 5.137.772l17.13-12.086c1.582-1.157 1.976-3.47.79-5.142L105 101.451c-1.053-.9-2.503-.9-3.689-.129l-.396.386c-1.053 1.414-2.371 2.7-3.951 3.856-1.582 1.157-3.295 1.928-4.877 2.571-.13.129-.263.129-.394.257-1.055.643-1.451 2.059-.922 3.344zM107.24 95.15l52.703-11.188c1.846-.64 3.032-2.7 2.372-4.628l-6.587-19.672c-.659-1.928-2.768-2.956-4.743-2.313l-49.41 21.214c-1.186.643-1.713 2.057-1.319 3.342.133.129.133.386.263.514 1.056 1.417 1.846 2.96 2.505 4.887.66 1.8.923 3.6.923 5.27 0 .13 0 .388.13.517.396 1.414 1.846 2.185 3.162 2.057z" fill="#626262" />
</svg>
