<svg xmlns="http://www.w3.org/2000/svg" viewBox="0 0 40 15.58"><title>babel</title><g id="Layer_2" data-name="Layer 2"><g id="Layer_1-2" data-name="Layer 1"><path d="M27.43,1.38V1.3h-.14v.09Zm.93,2.25v0h.1a.37.37,0,0,1,0-.14V3.44s-.08.07-.12.18ZM24.72,6.45A4.46,4.46,0,0,0,24,5.52c0-.1.16-.25.51-.45l1-.86a2.47,2.47,0,0,0,.39-1.37V2.7c0-.44-.35-.79-1-1.06A3.82,3.82,0,0,0,23,1.24a11.28,11.28,0,0,0-3,.82,12.23,12.23,0,0,1-1.15.73v.07A.27.27,0,0,0,19,2.81a.07.07,0,0,1,.08.07l.07,0h0v0a4.05,4.05,0,0,1-.8.62l0,.08h0l-.09,0s0,0-.11.05v0l.09.11-.12,0a.6.6,0,0,0-.37.2l.05-.22a17.85,17.85,0,0,0,.37-2.06v0a1.5,1.5,0,0,1-.36-.33,1.18,1.18,0,0,0,0-.16v0h0q-.58.88-2.25,3a12.81,12.81,0,0,0-1.31,1.68c-.35.36-.51.57-.49.65s-.13.12-.12.18a0,0,0,0,1-.05,0,1,1,0,0,1-.66.46l-.31.07a.07.07,0,0,0-.06.09v0l.12,0v0l-.26.1-.46.11H11.7s.19,0,.1,0l-.3.07c-.18,0-.28,0-.3,0h0a.17.17,0,0,1,0,.08l0-.07-.24.06a6.14,6.14,0,0,0-1-1.22c0-.14.21-.33.67-.59l1.29-1.14a3.31,3.31,0,0,0,.52-1.79l0-.19c-.05-.58-.47-1-1.26-1.41A5,5,0,0,0,8.61.68,15.16,15.16,0,0,0,4.68,1.75a15,15,0,0,1-1.52,1v.1a.4.4,0,0,0,.15-.06.09.09,0,0,1,.11.08l.1-.06h.05v0a5.91,5.91,0,0,1-1.06.82l.06.09H2.53l-.11,0s0,.05-.15.06v.05l.12.13a.43.43,0,0,1-.16,0,1,1,0,0,0-.68.5l.06.09A1.42,1.42,0,0,1,2,4.22v.14l-.15.06.12.18A4,4,0,0,1,2.71,4c.14,0,.21.08.22.13H3A8.25,8.25,0,0,1,5.29,2.86V3q-.21.31-.28.32a.32.32,0,0,0,.07.19A17.89,17.89,0,0,1,4.07,6,68.94,68.94,0,0,1,.13,14.2a.34.34,0,0,0,.06.14,1.32,1.32,0,0,0,.5-.19H.75v.1h.1l.1-.06s0,0,.1,0v.1a.9.9,0,0,1-.17.45,2.33,2.33,0,0,0-.34.76v0h.1a6.2,6.2,0,0,0,1-1.4A15.48,15.48,0,0,0,4.47,13.1,2.66,2.66,0,0,0,6,12.58v-.05l-.25.07H5.67v-.05a2.24,2.24,0,0,0,1-.33q1.41-1.09,2.14-1.55a5.59,5.59,0,0,0,1.93-2.12l.17,0h.24s0,0,0,0c.22,0,.12,0,.26,0l.37-.09s0,0,0,0l.06,0h0l0,0H12l0,.11-1.69,2.69-.38.47-.18.61h0l.18-.08-.06.24,0,.07.05.06s0,0,0,0v0l.08,0q.17-.15.14-.27a.7.7,0,0,0,.24,0v0c-.07,0-.11.08-.12.18v0h0c.61-.67,2.12-3,3.33-4.52q-.06-.25,1.89-.7h0a4,4,0,0,1-.3,1.48,4,4,0,0,0-.22.77,5.94,5.94,0,0,0-.29,1l-.46,1.51a13.79,13.79,0,0,0-.69,2.44h.13l.06-.06a0,0,0,0,0,.05,0l0-.11h.2c.06,0,.11-.09.15-.22s0-.31.12-.34a3.26,3.26,0,0,1,.23-.74,3.26,3.26,0,0,1,.26-.82c.17-.63.3-.95.38-1l0,.08-.13.33a16.07,16.07,0,0,1-.67,2.33l.06.28h0a60.57,60.57,0,0,0,2.37-7,.92.92,0,0,1,.44-.71l-.06-.06v0a.4.4,0,0,0,.25-.14s-.11-.07-.31-.12l.51-2.2a.76.76,0,0,1,.2-.15V4a.27.27,0,0,0-.12.05l.1.14a3.16,3.16,0,0,1,.58-.5c.11,0,.16.07.17.1h.08a6.26,6.26,0,0,1,1.72-.92V3q-.16.23-.21.24a.32.32,0,0,0,0,.14,13.45,13.45,0,0,1-.77,2,53.09,53.09,0,0,1-3,6.2.27.27,0,0,0,.05.11,1,1,0,0,0,.38-.14h0v.07h.08l.07,0s0,0,.08,0v.08a.67.67,0,0,1-.13.34,1.69,1.69,0,0,0-.27.58v0h.08a4.67,4.67,0,0,0,.74-1.06,11.9,11.9,0,0,0,2.16-.81A2,2,0,0,0,21,10.28v0l-.19.06h0v0a1.7,1.7,0,0,0,.76-.25c.71-.55,1.26-.94,1.62-1.17,1.14-.83,1.67-1.63,1.61-2.39Zm-.19.05,0,.3c0,.07-.07.11-.11.12l0-.51c.08,0,.12.06.13.09ZM2.16,4.1H2.11V4l.2,0V4a.39.39,0,0,0-.15.06Zm-1,10A.63.63,0,0,0,.85,14v-.14c0-.06,0-.09.1-.11s.1,0,.11.14a2.15,2.15,0,0,1,.28-.32l.11,0c0,.3-.13.45-.27.46ZM11.8,2.93c-.05,0-.15-.15-.3-.46V2.38c.09,0,.19.14.3.46v.09Zm-.14-1.1,0,.1-1.44-.6q1.44,0,1.49.51ZM5.56,7.07l-.2,0V7l.2,0v.09ZM5.39,3.92h.05v.14s-.11.07-.19.21v-.1c.09-.11.14-.19.13-.25ZM5,4.93l0,.19H4.93l0-.19Zm-.22.36h.1c0,.16-.05.25-.13.25H4.66a.46.46,0,0,0,.09-.25Zm-.17.5h.06v0L4.54,6h-.1v0a.13.13,0,0,0,.13-.16Zm-.17.45,0,.24H4.33l0-.24ZM2.75,11c-.07.33-.14.5-.21.51v0A.53.53,0,0,1,2.75,11Zm-.3.66v0a.09.09,0,0,1-.09.11v0q0-.08.09-.11ZM2.36,13h.15V13a.4.4,0,0,0-.15.06h-.1c0-.05,0-.09.09-.11Zm4.37-1.35a8.1,8.1,0,0,0-1.52.87q-1.4.49-1.39.61a15.24,15.24,0,0,0-1.64.72.59.59,0,0,1-.27-.07.43.43,0,0,1,.22-.41.87.87,0,0,1,.42.06,4.05,4.05,0,0,1,.8-.26V13l-.31,0a4.17,4.17,0,0,1,.89-.42h.15v0c-.26,0-.41.1-.44.24s0,.09.11.08.3-.2.29-.22a16.41,16.41,0,0,0,3.11-1.63v.09s-.14.17-.43.38Zm-2.61.86a1,1,0,0,0,.64-.3c.07,0,.11,0,.11.08a2.27,2.27,0,0,0-.69.31H4.13v-.1Zm4.2-3.23-1.3,1a13.31,13.31,0,0,1-1.56,1,11.8,11.8,0,0,1-2.87,1.32H2.53q.07-.26,2.06-4.22a11.24,11.24,0,0,0,2.76-.82l.31,0a1.77,1.77,0,0,1,1.42.36l0,.19q-.35,1-.78,1.19ZM5.78,7.83l.21,0v0l-.21,0v0Zm2.95-.5h.15c.14.07.22.13.22.18v0a.43.43,0,0,1-.38-.21ZM9.14,5A6,6,0,0,1,8,5.79a14.43,14.43,0,0,0-2.24.87.41.41,0,0,0-.21,0V6.53a1.21,1.21,0,0,1,.25-.7c.1-.53.21-.84.33-.91L7.23,2.5q0-.23.69-.35h.15v.14L9,2.15c.86-.07,1.3.1,1.34.52h.1l0-.25h.11a.67.67,0,0,1,.4.51.79.79,0,0,1-.22.51c-.06,0-.1,0-.11-.14h-.11l0,.3q-.65,1-.95,1c-.18.25-.29.37-.33.37Zm.66,1.7a.38.38,0,0,0-.21-.08V6.43h.1l.22.13a.09.09,0,0,1-.09.11Zm.69.81c.09,0,.15.08.16.12h-.07l-.07.06,0-.19Zm.07.41v0l.12,0v0l-.12,0Zm.3.33.43-.08v0l-.45.1V8.21Zm.44.19a1.92,1.92,0,0,0-.45.06v0l.38-.12.18,0,0,.07c-.08,0,0,0-.12.07Zm.4-.09a.08.08,0,0,1-.1-.06l.12,0a.07.07,0,0,1,.09.06l-.11,0Zm1.08-1.16v0l.19,0,0,.07Zm1.16,7.08a.29.29,0,0,0,0-.12h0a.07.07,0,0,1,.09.05v0l-.15,0Zm.81-6.78h-.08l-.34.11-.08,0a.08.08,0,0,1-.1-.05l.54-.12.18-.08.06.07a.39.39,0,0,0-.18.08Zm.42-.13v0a.23.23,0,0,0,.1-.07l.38-.09v0a3,3,0,0,0-.48.15Zm.06-.78a.32.32,0,0,0-.11.07s-.06,0-.16,0,.27-.18.85-.31l.08,0,0,.07-.69.2Zm1-1.12c0,.47-.21.74-.5.8v0l-.26.1-.12,0a.29.29,0,0,1-.16,0l0-.1a15.62,15.62,0,0,1,1.13-1.56h.09a1.61,1.61,0,0,1-.15.76Zm1.83-1.57h0V3.78h.15v0l-.12,0Zm-.75,7.57a.47.47,0,0,0-.24-.05v-.11s0-.07.07-.08.08,0,.09.11a1.29,1.29,0,0,1,.21-.25l.08,0c0,.22-.1.34-.2.35ZM25.4,3s-.11-.12-.23-.35V2.54c.07,0,.15.11.23.35V3Zm-.11-.84,0,.08-1.09-.46c.73,0,1.11.15,1.13.38Zm-4.64,4H20.5V6h.15V6.1Zm-.13-2.39h0v.11s-.09.06-.14.16V3.91a.34.34,0,0,0,.1-.2Zm-.32.77v.14h0V4.48ZM20,4.75h.08q0,.19-.1.2h0A.4.4,0,0,0,20,4.75Zm-.12.38h0v0l-.07.12H19.8v0c.08,0,.12,0,.11-.12Zm-.12.34,0,.19h0V5.48ZM18.52,9.06q-.08.37-.16.38v0a.42.42,0,0,1,.16-.35Zm-.23.5v0a.07.07,0,0,1-.07.09v0s0-.07.07-.08Zm-.07,1h.12v0l-.12,0h-.08s0-.07.07-.08Zm3.32-1a6.9,6.9,0,0,0-1.16.65c-.71.25-1.06.4-1.05.46a11.21,11.21,0,0,0-1.24.55.46.46,0,0,1-.2-.06.31.31,0,0,1,.17-.31.67.67,0,0,1,.32,0,3.43,3.43,0,0,1,.61-.2v-.07l-.24,0a3.18,3.18,0,0,1,.68-.32h.12v0c-.2,0-.31.08-.34.18a.07.07,0,0,0,.08.07c.15-.1.22-.15.22-.17a12.09,12.09,0,0,0,2.36-1.24v.07s-.11.13-.33.29Zm-2,.65a.79.79,0,0,0,.49-.22.07.07,0,0,1,.08.07,1.88,1.88,0,0,0-.53.22h0v-.07Zm3.2-2.45-1,.79a9.56,9.56,0,0,1-1.2.73,8.8,8.8,0,0,1-2.18,1h0q.05-.2,1.57-3.2A8.64,8.64,0,0,0,22,6.46l.24,0a1.33,1.33,0,0,1,1.08.28v.14c-.18.51-.38.81-.59.9ZM20.83,6.68H21v0h-.15v0Zm2.24-.38h.12c.11.05.17.1.17.14v0a.33.33,0,0,1-.29-.16Zm.31-1.8a4.52,4.52,0,0,1-.84.63,11.3,11.3,0,0,0-1.7.66.39.39,0,0,0-.16,0V5.7a.93.93,0,0,1,.19-.53c.08-.41.16-.64.25-.69l.82-1.84c0-.11.17-.2.52-.27h.12v.11l.66-.1c.65-.06,1,.07,1,.39h.08V2.58h.08a.49.49,0,0,1,.3.38.61.61,0,0,1-.16.39c-.05,0-.08,0-.09-.11h-.08l0,.22c-.33.5-.57.76-.72.77-.13.18-.22.27-.25.27Zm.35,1.23V5.62h.08l.17.1a.07.07,0,0,1-.07.08.3.3,0,0,0-.16-.06ZM10,12.9l-.08,0L9.83,13a.07.07,0,0,0,.09.05c.05,0,.07,0,.06-.09v0Zm-.29-.58v0c.05,0,.07,0,.06-.09v0a.07.07,0,0,0-.06.09Zm2.08-4.95.09,0,0-.08-.09,0,0,.08ZM38.56,9.62a5,5,0,0,1-1.2.18v.07h.12l.1,0c.89-.1,1-.06,1-.16v0Zm-4.84.64v.07h0v-.07Zm-.56-1.95-.08,0A1.33,1.33,0,0,0,33,8.6v0c.06,0,.12-.11.17-.31Zm5.57,1.29v.07l.13,0V9.63l-.13,0Zm-6.11.75-.2,0,0,.08v0l1.2-.1v-.07l-1,.08Zm-.54-2.62v0h0l-.07,0,0,.07c.06,0,.08,0,.08-.08Zm7.22,1.33h.06s0,0,0-.08l0-.07a1,1,0,0,0-.46.12V9l-.25,0c0-.07,0-.11-.06-.11h-.13c-.15,0-.22,0-.29.06s0,0,0,0H38l-.08,0s0,0,0,0l-.05,0V9h-.25V9l.1,0h.09a.17.17,0,0,0,.11,0L38,9v0a6.05,6.05,0,0,1-.78.15.13.13,0,0,0-.08,0h0a.06.06,0,0,1-.06-.07l.17,0,.11,0c.13-.07.14-.09.21-.1V9a4.81,4.81,0,0,1-.84.08h0V9c.73-.09.49,0,.74-.11,0,0,0,0,0,0a.17.17,0,0,1,.1-.05h.05a2.68,2.68,0,0,0,.85-.11v0l.08,0h.08c0-.07.11-.09.14-.09V8.55c-.89.18-1.13.13-1.37.2v0a1.08,1.08,0,0,1-.3,0,.16.16,0,0,0-.07,0s0,0,0,0h0l-.76.12s0,0,0,0a3.86,3.86,0,0,1-.81.14l-.1,0s0,0,0,0L34.9,9l-.22.05s0,0,0,0a1.72,1.72,0,0,1-.31.06h0c-.05,0,0,0,0,0l-.07,0h-.37c-.57.07-.51.08-.57.08H33.1a0,0,0,0,1,0,0c-.24,0-.37-.07-.37-.12q0-.35.17-.35h0l0,.08h0c.08,0,.11-.08.11-.12V8.63h-.08V8.56a.27.27,0,0,1,0-.15l.17-.28v.07h.08V8.13l0-.07A.3.3,0,0,1,33.31,8v0H33.2V7.83A3.17,3.17,0,0,0,33.51,7l.08,0c.05,0,.07,0,.07-.09h-.08v0a.28.28,0,0,1,0-.16.49.49,0,0,0,.17-.39s0,0,0,0,.18-.22.24-.48a14.85,14.85,0,0,0,.78-2,11.19,11.19,0,0,0,.71-2.35h-.08a.27.27,0,0,1,0,.15l-.12,0v0a.9.9,0,0,1,.19-.54h0l.07.25h.08a2.32,2.32,0,0,1,.06-.3s0-.06-.09-.06l-.07,0c0-.05,0-.19,0-.41h0a.29.29,0,0,1-.1-.16L35,.56a.39.39,0,0,0,0-.13s.09-.08.29-.12l.09,0,.08,0s0,0,0,0l.08,0s0,0,0,0h0V.24h-.46L35.1.29v0L31.72.52H31.3s0,.05-.09.06l-.09,0-.29.07a1.93,1.93,0,0,1-.34,0,.3.3,0,0,1-.16.06L31.18.6A.39.39,0,0,1,31,.67a.28.28,0,0,1-.17,0,4.8,4.8,0,0,1-.63.15l-.09,0L28.71,1a.35.35,0,0,0-.19,0,2.3,2.3,0,0,0-.37.08l-.67.28.05.08a.37.37,0,0,0,.14-.05l.24,0,0,.22A.6.6,0,0,0,27.5,2c-.33.14-.49.25-.49.31v0h.05l.09,0,.1.12v.17q0,.08-1.65,3.48c-1,2.19-1.46,3.38-1.51,3.6-.33.09-.52.22-.57.4s.1.09.29.11v.09l-.09.14v.17q0,.13.72.2s0,0,0-.05a2.58,2.58,0,0,1-.09.62h.05a1.1,1.1,0,0,0,.28-.55h0s.1.05.16.17a7,7,0,0,0-.62,1.41l.05.08h.05a10.4,10.4,0,0,1,.82-1.82l3-.3.09-.05a0,0,0,0,0,.05,0h.09l.09-.05a0,0,0,0,0,.05,0l1.06-.09c.28,0,.41-.11.4-.25s.16-.08.5-.13l.14,0s.17-.05.5-.08c0-.18.07-.27.17-.28V9.4a1.47,1.47,0,0,0-.32.07,2,2,0,0,1-.42-.05l-.14.05-.74,0-.09,0s0,0-.05,0h0l-.09,0s-.08,0-.23-.07l-.09.06H29v0q1.43-.16,1.41-.39a.08.08,0,0,1,.1.09l.28-.07V9.06l-2.28.06s0,0,0,.05l-.28,0a.33.33,0,0,0-.18.06l-.1,0a3.16,3.16,0,0,0-.64.1,4,4,0,0,0-.65,0l-.51,0-.24,0a11.68,11.68,0,0,1,.88-2.22,1.94,1.94,0,0,1,.49-.84.34.34,0,0,1,.14,0l.36-.12.19,0A4.26,4.26,0,0,0,29,5.91a.51.51,0,0,1,.24,0l.28-.07.83-.07a5.49,5.49,0,0,0,1.15-.23V5.48c-.15,0-.23,0-.24-.07s-.12-.16-.34-.14V5.18l.23-.07.6-.05V5h-.37V4.87l.23,0c.06,0,.09,0,.08-.09-.31,0-.47,0-.47,0a19.68,19.68,0,0,1-3.25.06.37.37,0,0,0-.14.06l-.06-.09a7.14,7.14,0,0,1,1-1.84.51.51,0,0,1-.07.23v0h.09c.23-.54.42-.82.58-.84.68-.06-.09-.1,1.36-.33a.28.28,0,0,0,.13,0q.86-.17,2.38-.36V1.58l-.54.05V1.55a.3.3,0,0,0,.16-.06v0a.32.32,0,0,0,.12-.06.39.39,0,0,1,.22,0,3.15,3.15,0,0,1,.45-.09l.34,0c.08-.05.12-.1.12-.14v0a1.07,1.07,0,0,1-.3,0,.09.09,0,0,1,.08-.09L34.45,1l.29-.07s0,0,0,0A.32.32,0,0,0,34.9.93h0a2.35,2.35,0,0,0-.13.35h-.08a.36.36,0,0,0,0-.15h0c-.77,2.14-1.11,3.13-1.82,4.78-.13.42-.24.65-.33.7a.07.07,0,0,0,.08.07,1,1,0,0,1-.14.61,6.14,6.14,0,0,1-.66,1.56l.07.45a.07.07,0,0,1-.07.08H31.7c0-.12-.06-.18-.14-.17h0a1.76,1.76,0,0,0-.23.55h.08a.26.26,0,0,0,.14-.24h.15l.09,0a.47.47,0,0,0-.1.27l0,.07-.1.24v0a.48.48,0,0,1,.29.08.52.52,0,0,0,.23-.09h1l.29-.1a6.65,6.65,0,0,0,.71,0h.12l.07,0v0a1.94,1.94,0,0,1,.58,0v0h-.17v.07a.25.25,0,0,0,.14-.05s.07,0,.07.07l-.24.05-.08,0c-.12,0-.09,0-.18,0l-.12,0a0,0,0,0,1,0,0,.06.06,0,0,0,.07.07h.12l.65-.06.25-.05s0,0,0,0l.12,0,.22,0c.17,0,.17,0,.54-.09,0,0,0,0,0,0v0a5.45,5.45,0,0,0,.74-.14v0c.15,0,.07,0,.11-.06s0,0,0,0h.11V9.84H37a1.14,1.14,0,0,1-.24,0l-.54,0v0l.3,0h.11l.06,0v0a10.16,10.16,0,0,0,2.54-.35c.11,0,.1-.1.17-.28a.18.18,0,0,1-.1,0,3.07,3.07,0,0,1-.56.08s0,0-.06-.07v0H39A.76.76,0,0,0,39.34,9s-.06,0,0,0ZM24.77,9.3h-.14a2.62,2.62,0,0,1,.22-.63h.09a2.42,2.42,0,0,1-.17.63Zm.17-.67v0s0-.08.09-.09v0c0,.06,0,.09-.09.09Zm1.85,1.43v0l-.23,0v0l.23,0Zm-.28,0s-.07.1-.22.15l-.28,0h-.09v-.09L26.5,10Zm1.87-8.59h-.14v0s0-.08.08-.09h.05l.09,0a.08.08,0,0,1-.09.09ZM30.48,1h0V1.1H30.4A.09.09,0,0,1,30.48,1Zm-.53.19-.21,0v0a2.27,2.27,0,0,0,.53-.1s0,0,.09,0v.09h-.08a.28.28,0,0,1-.17,0,.36.36,0,0,1-.16.06Zm.26.77v0l.34,0v0l-.34,0Zm.36-.3v0h.17v0Zm0-.58h0l0-.09L31,1V1a2.28,2.28,0,0,0-.38.08Zm.19.82V1.83H31q.08,0,.09.08l-.25,0Zm1-1.36L31.6.61h0a2.17,2.17,0,0,1-.38,0l.64-.05Zm-.23.95v0l-.29,0v0l.29,0Zm.48.23s-.06-.06-.17-.07l-.29.08h-.22c-.05,0-.08-.06-.08-.08h.26l.58-.09h.3v0a1.68,1.68,0,0,0-.38.08Zm3-.78h.07a1.14,1.14,0,0,1,.35-.24,2.08,2.08,0,0,1-.5,1l-.17-.1a5.41,5.41,0,0,0,.25-.7Zm-.51.87h0c-.06.11-.11.16-.15.17V1.87a.25.25,0,0,0,.12-.05Zm-.33.78a1.11,1.11,0,0,1,.23-.55v0c0,.3-.11.45-.19.46v.19a.42.42,0,0,0-.1.24h0l0-.26s.09,0,.11-.12ZM34.11,3a1.08,1.08,0,0,1-.09.31h0V3.22c.06-.13.1-.2.14-.2ZM31.72,9.94v0h.08V10s-.07,0-.08-.07Zm3.41.09s0,0,0,0l-.19,0v0h0l.45,0v0a.4.4,0,0,0-.24.06Zm-.23-.09s0,0,0,0,0,0,0,0Zm0-.53-.25,0v0l.23,0,.2-.05s0,0,0,0c.24,0,.22-.05.33-.06s.06,0,.07.07l-.61.05Zm.89-.08a1,1,0,0,0-.25,0v0l.23,0v0s.06,0,0,0Zm0,0v0H36v0Zm.27,0v0l.09,0a.09.09,0,0,1,.1.08Zm.35,0v0h.15v0Zm.21,0s0-.07.05-.08l.05.07a0,0,0,0,1,0,0l0,.07-.17,0Zm-2.23,1v-.07h0v.07Zm5.19-1.34s0,0,0,0,0,0,0,0v0l0,0,0,0h0l-.06.08.12,0h0V8.82Zm.22.17h0v.07H40S39.88,9,39.84,9Zm-.27-.13h0Z"/><path d="M28.23,3.39v0h.1a.37.37,0,0,1,0-.14V3.21s-.08.06-.12.18ZM27.3,1.15V1.06h-.14v.09ZM24.59,6.22a4.46,4.46,0,0,0-.74-.94c0-.1.16-.25.51-.45l1-.86a2.47,2.47,0,0,0,.39-1.37V2.46c0-.44-.35-.79-1-1.06A3.82,3.82,0,0,0,22.85,1a11.28,11.28,0,0,0-3,.82,12.25,12.25,0,0,1-1.15.73v.07a.27.27,0,0,0,.12-.05.07.07,0,0,1,.08.07l.07,0h0v0a4.05,4.05,0,0,1-.8.62l0,.08h0l-.09,0s0,0-.11.05v0l.09.11-.12,0a.6.6,0,0,0-.37.2l.05-.22a17.84,17.84,0,0,0,.37-2.06v0A1.5,1.5,0,0,1,17.69,1a1.18,1.18,0,0,0,0-.16v0h0q-.59.88-2.25,3A12.81,12.81,0,0,0,14.08,5.5c-.35.36-.51.57-.49.65s-.13.12-.12.18a0,0,0,0,1-.05,0,1,1,0,0,1-.66.46l-.31.07a.07.07,0,0,0-.06.09V7l.12,0V7l-.26.1-.46.11h-.24s.19,0,.1,0l-.3.07c-.18,0-.28,0-.3,0h0a.17.17,0,0,1,0,.08l0-.07-.24.06a6.14,6.14,0,0,0-1-1.22c0-.14.21-.33.67-.59l1.29-1.14a3.31,3.31,0,0,0,.52-1.79l0-.19c-.05-.58-.47-1-1.26-1.41A5,5,0,0,0,8.48.45,15.16,15.16,0,0,0,4.55,1.51,15,15,0,0,1,3,2.47v.1a.4.4,0,0,0,.15-.06.09.09,0,0,1,.11.08l.1-.06h.05v0a5.91,5.91,0,0,1-1.06.82l.06.09H2.4l-.11,0s0,.05-.15.06v.05l.12.13a.43.43,0,0,1-.16,0,1,1,0,0,0-.68.5l.06.09A1.42,1.42,0,0,1,1.82,4v.14l-.15.06.12.18a4,4,0,0,1,.77-.65c.14,0,.21.08.22.13H2.9A8.25,8.25,0,0,1,5.16,2.62v.1Q5,3,4.88,3A.32.32,0,0,0,5,3.23a17.91,17.91,0,0,1-1,2.57A68.93,68.93,0,0,1,0,14a.34.34,0,0,0,.06.14,1.32,1.32,0,0,0,.5-.19H.62V14h.1l.1-.06s0,0,.1,0v.1a.9.9,0,0,1-.17.45,2.34,2.34,0,0,0-.34.76v0h.1a6.2,6.2,0,0,0,1-1.4,15.49,15.49,0,0,0,2.84-1.07,2.66,2.66,0,0,0,1.5-.52v-.05l-.25.07H5.53v-.05a2.24,2.24,0,0,0,1-.33q1.41-1.09,2.14-1.55a5.59,5.59,0,0,0,1.93-2.12l.17,0H11s0,0,0,0c.22,0,.12,0,.26,0l.37-.09h.06l0,0h.14l0,.11-1.69,2.69-.38.47L9.6,12h0l.18-.08-.06.24,0,.07.05.06s0,0,0,0v0l.08,0q.17-.15.14-.27a.7.7,0,0,0,.24,0v0c-.07,0-.11.08-.12.18v0h0c.61-.67,2.12-3,3.33-4.52q-.06-.25,1.89-.7h0a4,4,0,0,1-.3,1.48,4,4,0,0,0-.22.77,5.93,5.93,0,0,0-.29,1l-.46,1.51a13.78,13.78,0,0,0-.69,2.44h.13l.07-.06a0,0,0,0,0,.05,0l0-.11h.2c.06,0,.11-.09.15-.22s0-.31.12-.34a3.26,3.26,0,0,1,.23-.74,3.26,3.26,0,0,1,.26-.82c.17-.63.3-.95.38-1l0,.08-.13.33a16.07,16.07,0,0,1-.67,2.33l.07.28h0a60.56,60.56,0,0,0,2.37-7,.92.92,0,0,1,.44-.71l-.06-.06v0a.4.4,0,0,0,.25-.14s-.11-.07-.31-.12l.51-2.2a.76.76,0,0,1,.2-.15V3.8a.27.27,0,0,0-.12.05l.1.14a3.16,3.16,0,0,1,.58-.5c.11,0,.16.07.17.1h.08a6.26,6.26,0,0,1,1.72-.92v.07q-.16.23-.21.24a.32.32,0,0,0,0,.14,13.47,13.47,0,0,1-.77,2,53.08,53.08,0,0,1-3,6.2.27.27,0,0,0,.05.11,1,1,0,0,0,.38-.14h0v.07H17l.07,0s0,0,.08,0v.08a.67.67,0,0,1-.13.34,1.68,1.68,0,0,0-.27.58v0h.08a4.67,4.67,0,0,0,.74-1.06,11.9,11.9,0,0,0,2.16-.81A2,2,0,0,0,20.84,10v0l-.19.06h0v0a1.7,1.7,0,0,0,.76-.25c.71-.55,1.26-.94,1.62-1.17,1.14-.83,1.67-1.63,1.61-2.39Zm-.2.05,0,.3c0,.07-.07.11-.11.12l0-.51c.08,0,.12.06.13.09ZM2,3.86H2V3.78l.2,0v0A.39.39,0,0,0,2,3.86Zm-1,10a.63.63,0,0,0-.32-.07v-.14c0-.06,0-.09.1-.11s.1,0,.11.14a2.15,2.15,0,0,1,.28-.32l.11,0c0,.3-.13.45-.27.46ZM11.67,2.69c-.05,0-.15-.15-.3-.46V2.14c.09,0,.19.14.3.46v.09Zm-.14-1.1,0,.1L10,1.09q1.44,0,1.49.51ZM5.43,6.83l-.2,0V6.76l.2,0v.09ZM5.26,3.68h.05v.14s-.11.07-.19.21v-.1c.09-.11.14-.19.13-.25Zm-.43,1,0,.19H4.8l0-.19Zm-.22.36h.1c0,.16-.05.25-.13.25H4.52a.46.46,0,0,0,.09-.25Zm-.17.5H4.5v0l-.09.15h-.1v0a.13.13,0,0,0,.13-.16ZM4.27,6l0,.24H4.19l0-.24ZM2.62,10.72c-.06.33-.14.5-.21.51v0a.53.53,0,0,1,.21-.46Zm-.3.66v0a.09.09,0,0,1-.09.11v0q0-.08.09-.11Zm-.09,1.37h.15v.05a.4.4,0,0,0-.15.06h-.1c0-.05,0-.09.09-.11ZM6.6,11.4a8.11,8.11,0,0,0-1.52.87q-1.4.49-1.39.61A15.22,15.22,0,0,0,2,13.59a.59.59,0,0,1-.27-.07A.43.43,0,0,1,2,13.1a.87.87,0,0,1,.42.07,4.05,4.05,0,0,1,.8-.26v-.1l-.31,0a4.18,4.18,0,0,1,.89-.42h.15v0c-.26,0-.41.1-.44.24s0,.09.11.08.3-.2.29-.22A16.42,16.42,0,0,0,7,10.92V11s-.14.17-.43.38ZM4,12.25a1,1,0,0,0,.64-.3c.07,0,.11,0,.11.08a2.27,2.27,0,0,0-.69.31H4v-.1ZM8.2,9l-1.3,1a12.9,12.9,0,0,1-1.57,1,11.81,11.81,0,0,1-2.87,1.32H2.4q.07-.26,2.06-4.22a11.24,11.24,0,0,0,2.76-.82l.31,0A1.77,1.77,0,0,1,9,7.65l0,.19C8.74,8.51,8.48,8.91,8.2,9ZM5.65,7.59l.21,0v0l-.21,0v0Zm2.95-.5h.15c.14.07.22.13.22.18v0a.43.43,0,0,1-.38-.21ZM9,4.72a6,6,0,0,1-1.12.83,14.43,14.43,0,0,0-2.24.87.41.41,0,0,0-.21,0V6.3a1.21,1.21,0,0,1,.25-.7c.1-.53.21-.84.33-.91L7.1,2.26q0-.23.69-.35h.15V2l.87-.12c.86-.07,1.3.1,1.34.52h.1l0-.25h.11a.67.67,0,0,1,.4.51.79.79,0,0,1-.22.51c-.07,0-.1,0-.11-.14h-.11l0,.3q-.65,1-.95,1c-.18.25-.29.37-.33.37Zm.66,1.7a.38.38,0,0,0-.21-.08V6.19h.1l.22.13a.09.09,0,0,1-.09.11Zm.69.81c.09,0,.15.08.16.12h-.07l-.07.06,0-.2Zm.06.41v0l.12,0v0l-.12,0Zm.3.33.43-.08v0l-.45.1V8Zm.44.19a1.92,1.92,0,0,0-.45.06v0l.38-.12.18,0,0,.07c-.08,0,0,0-.12.07Zm.4-.09a.08.08,0,0,1-.1-.06l.12,0a.07.07,0,0,1,.09.06l-.11,0ZM12.64,6.9v0l.19,0,0,.07ZM13.79,14a.29.29,0,0,0,0-.12h0a.07.07,0,0,1,.09.05v0l-.15,0Zm.81-6.78h-.08l-.34.11-.08,0a.08.08,0,0,1-.1-.05l.54-.12.18-.08.06.07a.4.4,0,0,0-.18.08ZM15,7.07V7a.23.23,0,0,0,.1-.07l.38-.09v0a3,3,0,0,0-.48.15Zm.06-.78a.32.32,0,0,0-.11.07s-.06,0-.16,0,.27-.18.85-.31l.08,0,0,.07-.69.2Zm1-1.12c0,.47-.21.74-.5.8v0l-.26.1-.12,0a.29.29,0,0,1-.16,0L15,6a15.64,15.64,0,0,1,1.13-1.56h.09a1.61,1.61,0,0,1-.15.76Zm1.83-1.57h0V3.54h.15v0l-.12,0Zm-.75,7.57a.47.47,0,0,0-.24-.05V11s0-.07.07-.08.08,0,.09.11a1.3,1.3,0,0,1,.21-.25l.08,0c0,.22-.1.34-.2.35Zm8.08-8.45s-.11-.12-.23-.35V2.3c.07,0,.15.11.23.35v.08Zm-.11-.84,0,.08L24,1.5c.73,0,1.11.15,1.13.38Zm-4.64,4h-.15V5.81h.15v.07ZM20.4,3.47h0v.11s-.09.06-.14.16V3.67a.34.34,0,0,0,.1-.19Zm-.32.77v.14h0V4.25Zm-.17.27H20q0,.19-.1.19h0a.4.4,0,0,0,.06-.19Zm-.12.38h0v0L19.75,5h-.08V5c.08,0,.12,0,.11-.12Zm-.12.34,0,.19h0V5.24ZM18.39,8.82q-.08.37-.16.38v0a.42.42,0,0,1,.16-.35Zm-.23.5v0a.07.07,0,0,1-.07.09v0s0-.07.07-.08Zm-.07,1h.12v0l-.12,0H18s0-.07.07-.08Zm3.32-1a6.9,6.9,0,0,0-1.16.65c-.71.25-1.06.4-1.05.46A11.2,11.2,0,0,0,18,11a.46.46,0,0,1-.2-.06.31.31,0,0,1,.17-.31.67.67,0,0,1,.32,0,3.43,3.43,0,0,1,.61-.2v-.07l-.24,0a3.17,3.17,0,0,1,.68-.32h.12v0c-.2,0-.31.08-.34.18a.07.07,0,0,0,.08.07c.15-.1.22-.15.22-.17A12.08,12.08,0,0,0,21.73,9V9s-.11.12-.33.29Zm-2,.65a.79.79,0,0,0,.49-.22c.05,0,.08,0,.08.07a1.88,1.88,0,0,0-.53.22h0V10Zm3.2-2.45-1,.79a9.56,9.56,0,0,1-1.2.73,8.8,8.8,0,0,1-2.18,1h0q.05-.2,1.57-3.2a8.64,8.64,0,0,0,2.09-.63l.24,0a1.33,1.33,0,0,1,1.08.28v.14c-.18.51-.38.81-.59.9ZM20.69,6.44h.15v0H20.7v0Zm2.24-.38H23c.11.05.17.1.17.14v0a.33.33,0,0,1-.29-.16Zm.31-1.8a4.52,4.52,0,0,1-.84.63,11.31,11.31,0,0,0-1.7.66.39.39,0,0,0-.16,0V5.46a.93.93,0,0,1,.19-.53c.08-.41.16-.64.25-.69l.82-1.84c0-.11.17-.2.52-.27h.12v.11l.66-.1c.65-.06,1,.07,1,.39h.08V2.34h.08a.49.49,0,0,1,.3.38.61.61,0,0,1-.16.39c-.05,0-.08,0-.09-.11h-.08l0,.22c-.33.5-.57.76-.72.77-.13.18-.22.27-.25.27Zm.35,1.23V5.38h.08l.17.1a.07.07,0,0,1-.07.08.3.3,0,0,0-.16-.06ZM9.83,12.67l-.08,0-.07.06a.07.07,0,0,0,.09.05c.05,0,.07,0,.06-.09v0Zm-.29-.58v0c.05,0,.07,0,.06-.09v0a.07.07,0,0,0-.06.09Zm2.09-3.93.06,0h0a0,0,0,0,0,0,0Zm0-1,.09,0,0-.08-.09,0,0,.08Zm20.88,3-.2,0,0,.08v0l1.2-.1V10l-1,.08ZM33.59,10v.07h0V10Zm5-.66v.07l.13,0V9.4l-.13,0Zm-.18,0a5,5,0,0,1-1.2.18v.07h.12l.1,0c.89-.1,1-.06,1-.16v0ZM33,8.08l-.08,0a1.33,1.33,0,0,0-.09.31v0c.06,0,.12-.11.17-.31ZM32,7.5v0h0l-.07,0,0,.07c.06,0,.08,0,.08-.08ZM34.3,9.93V9.86h0v.07Zm4.87-1.1h.06s0,0,0-.08l0-.07a1,1,0,0,0-.46.12v0l-.25,0c0-.07,0-.11-.06-.11h-.13c-.15,0-.22,0-.29.06s0,0,0,0h-.14l-.08,0s0,0,0,0l-.05,0v0h-.25v.07l.1,0h.09a.17.17,0,0,0,.11,0l.08,0v0A6.05,6.05,0,0,1,37.1,9a.14.14,0,0,0-.08,0h0A.06.06,0,0,1,37,8.89l.17,0,.11,0c.13-.07.14-.09.21-.1V8.72a4.82,4.82,0,0,1-.84.08h0V8.73c.73-.09.49,0,.74-.11,0,0,0,0,0,0a.17.17,0,0,1,.1-.05h.05a2.68,2.68,0,0,0,.85-.11v0l.08,0h.08c0-.07.11-.09.14-.09V8.31c-.89.18-1.13.13-1.37.2v0a1.08,1.08,0,0,1-.3,0,.16.16,0,0,0-.07,0s0,0,0,0h0l-.76.12s0,0,0,0a3.86,3.86,0,0,1-.81.14l-.1,0s0,0,0,0l-.32,0-.22.05s0,0,0,0a1.72,1.72,0,0,1-.31.06h0c-.05,0,0,0,0,0l-.07,0h-.37c-.57.07-.51.08-.57.08H33a0,0,0,0,1,0,0c-.24,0-.37-.07-.37-.12q0-.35.17-.35h0l0,.08h0c.08,0,.11-.08.11-.12V8.39H32.8V8.32a.27.27,0,0,1,0-.15L33,7.9V8h.08V7.89l0-.07a.3.3,0,0,1,.15-.09v0h-.11V7.6a3.16,3.16,0,0,0,.32-.82l.08,0c.05,0,.07,0,.07-.09h-.08v0a.28.28,0,0,1,0-.16.49.49,0,0,0,.17-.39s0,0,0,0,.18-.22.24-.48a14.86,14.86,0,0,0,.78-2,11.18,11.18,0,0,0,.71-2.35h-.08a.27.27,0,0,1,0,.15l-.12,0v0a.9.9,0,0,1,.19-.54h0l.07.25h.08a2.32,2.32,0,0,1,.06-.3s0-.06-.09-.06l-.07,0c0-.05,0-.19,0-.41h0a.29.29,0,0,1-.1-.16l-.42,0a.39.39,0,0,0,0-.13s.09-.08.29-.12l.09,0,.08,0s0,0,0,0l.08,0s0,0,0,0h0V0H35L35,.05V0L31.59.29h-.42s0,.05-.09.06L31,.3l-.29.07a1.92,1.92,0,0,1-.34,0,.29.29,0,0,1-.16.06L31,.37a.39.39,0,0,1-.21.06.28.28,0,0,1-.17,0A4.8,4.8,0,0,1,30,.55L30,.52,28.58.73a.35.35,0,0,0-.19,0A2.29,2.29,0,0,0,28,.78l-.67.28.05.08a.37.37,0,0,0,.14-.05l.24,0,0,.22a.6.6,0,0,0-.38.43c-.33.14-.49.25-.49.31v0h.05l.09,0,.1.12v.17q0,.08-1.65,3.48C24.53,8,24,9.21,24,9.43c-.33.09-.52.22-.57.4s.1.09.29.11V10l-.09.14v.17q0,.13.72.2s0,0,0-.05a2.59,2.59,0,0,1-.09.62h.05a1.1,1.1,0,0,0,.28-.55h0s.1.05.16.17a7,7,0,0,0-.62,1.41l.05.08h.05a10.41,10.41,0,0,1,.82-1.82l3-.3.09-.05a0,0,0,0,0,.05,0h.09l.09-.05a0,0,0,0,0,.05,0L29.53,10c.28,0,.41-.11.4-.25s.16-.08.5-.13l.14,0s.17-.05.5-.08c0-.18.06-.27.17-.28V9.16a1.47,1.47,0,0,0-.32.07,2,2,0,0,1-.42-.05l-.14.05-.74,0-.09,0s0,0-.05,0h0l-.09,0s-.08,0-.23-.07L29,9.31h-.18v0q1.43-.16,1.41-.39a.08.08,0,0,1,.1.09l.28-.07V8.82l-2.28.06s0,0,0,.05l-.28,0a.33.33,0,0,0-.18.06l-.1,0a3.16,3.16,0,0,0-.64.1,4,4,0,0,0-.65,0l-.51,0-.24,0a11.67,11.67,0,0,1,.88-2.22A1.94,1.94,0,0,1,27,6a.34.34,0,0,1,.14,0l.36-.12.19,0a4.26,4.26,0,0,0,1.09-.27.51.51,0,0,1,.24,0l.28-.07.83-.07a5.49,5.49,0,0,0,1.15-.23V5.24c-.15,0-.23,0-.24-.07S31,5,30.74,5V4.94L31,4.87l.6-.05V4.74h-.37V4.64l.23,0c.06,0,.09,0,.08-.09-.31,0-.47,0-.47,0a19.68,19.68,0,0,1-3.25.06.37.37,0,0,0-.14.06l-.06-.09a7.14,7.14,0,0,1,1-1.84.54.54,0,0,1-.07.23v0h.09c.23-.54.42-.82.58-.84.68-.06-.09-.1,1.36-.33a.28.28,0,0,0,.13,0q.86-.17,2.38-.36V1.34l-.54.05V1.31a.29.29,0,0,0,.16-.06v0a.32.32,0,0,0,.12-.06.39.39,0,0,1,.22,0,3.14,3.14,0,0,1,.46-.09l.34,0c.08-.05.12-.1.12-.14V1a1.07,1.07,0,0,1-.3,0,.09.09,0,0,1,.08-.09l.63-.06.29-.07s0,0,0,0a.32.32,0,0,0,.12-.06h0a2.36,2.36,0,0,0-.13.35h-.08a.36.36,0,0,0,0-.15h0C33.75,3,33.41,4,32.7,5.68c-.13.42-.24.65-.33.7a.07.07,0,0,0,.08.06,1,1,0,0,1-.14.61,6.14,6.14,0,0,1-.66,1.56l.07.45a.07.07,0,0,1-.07.08h-.08c0-.12-.06-.18-.14-.17h0a1.76,1.76,0,0,0-.23.55h.08a.26.26,0,0,0,.14-.24h.15l.09,0a.47.47,0,0,0-.1.27l0,.07-.1.24v0a.48.48,0,0,1,.29.08A.52.52,0,0,0,32,9.9h1l.29-.1a6.63,6.63,0,0,0,.71,0h.12l.07,0v0a1.94,1.94,0,0,1,.58,0v0h-.17V9.9a.25.25,0,0,0,.14-.05s.07,0,.07.07l-.24.05-.08,0c-.12,0-.09,0-.18,0l-.12,0a0,0,0,0,1,0,0,.06.06,0,0,0,.07.07h.12L35,10l.25-.05s0,0,0,0l.12,0,.22,0c.17,0,.17,0,.54-.09,0,0,0,0,0,0v0a5.45,5.45,0,0,0,.74-.14v0c.15,0,.07,0,.11-.06s0,0,0,0h.11V9.6H36.9a1.14,1.14,0,0,1-.24,0l-.54,0v0l.3,0h.11l.06,0v0a10.16,10.16,0,0,0,2.54-.35c.11,0,.1-.1.17-.28a.18.18,0,0,1-.1,0,3.08,3.08,0,0,1-.56.08s0,0-.06-.07v0h.3a.76.76,0,0,0,.33-.11s-.06,0,0,0Zm-14.55.23h-.14a2.62,2.62,0,0,1,.22-.63h.09a2.42,2.42,0,0,1-.17.63Zm.17-.67v0s0-.08.09-.09v0c0,.06,0,.09-.09.09Zm1.85,1.43v0l-.23,0v0l.23,0Zm-.28,0s-.07.1-.22.15l-.28,0h-.09V9.85l.61-.06ZM28.24,1.2H28.1v0s0-.08.08-.09h.05l.09,0a.08.08,0,0,1-.09.09ZM30.35.79h0V.87h-.13a.09.09,0,0,1,.08-.09ZM29.82,1l-.21,0v0a2.27,2.27,0,0,0,.53-.1s0,0,.09,0V.93h-.08a.28.28,0,0,1-.17,0,.36.36,0,0,1-.16.06Zm.26.77v0l.34,0v0l-.34,0Zm.36-.3v0h.17v0Zm0-.58h0l0-.09.38,0v0a2.28,2.28,0,0,0-.38.08Zm.19.82V1.59h.17q.08,0,.09.08l-.25,0Zm1-1.36-.21.06h0a2.17,2.17,0,0,1-.38,0l.64-.05Zm-.23.95v0l-.29,0v0l.29,0Zm.48.23s-.06-.06-.17-.07l-.29.08h-.22c-.05,0-.08-.06-.08-.08h.26L32,1.35h.3v0a1.67,1.67,0,0,0-.38.08Zm3-.78H35a1.13,1.13,0,0,1,.35-.24,2.08,2.08,0,0,1-.5,1l-.17-.1a5.39,5.39,0,0,0,.25-.7Zm-.51.87h0c-.06.11-.11.16-.15.17V1.63a.25.25,0,0,0,.12-.05Zm-.33.78a1.11,1.11,0,0,1,.23-.55v0c0,.3-.11.45-.19.46v.19a.42.42,0,0,0-.1.24h0l0-.26s.09,0,.11-.12ZM34,2.79a1.08,1.08,0,0,1-.09.31h0V3c.06-.13.1-.19.14-.2ZM31.59,9.71v0h.08v.11s-.07,0-.08-.07ZM35,9.8s0,0,0,0l-.19,0v0h0l.45,0v0A.4.4,0,0,0,35,9.8Zm-.23-.09s0,0,0,0,0,0,0,0Zm0-.53-.25,0v0l.23,0,.2-.05s0,0,0,0c.24,0,.22-.05.33-.06s.06,0,.07.07l-.61.05Zm.89-.08a1,1,0,0,0-.25,0V9l.23,0v0s.06,0,0,0Zm0,0V9h.12V9ZM36,9V9l.09,0a.09.09,0,0,1,.1.08Zm.35,0v0h.15V9Zm.21,0s0-.07.05-.08l.05.07a0,0,0,0,1,0,0l0,.07-.17,0Zm2.91-.34h0Zm.05,0s0,0,0,0,0,0,0,0v0l0,0,0,0h0l-.06.08.12,0h0V8.58Zm.22.17h0v.07h.17s-.12-.06-.16-.06Z"/></g></g></svg>