<svg xmlns="http://www.w3.org/2000/svg" viewBox="0 0 40 21.76"><title>react-router</title><g id="Layer_2" data-name="Layer 2"><g id="Layer_1-2" data-name="Layer 1"><path d="M29.74,14.25a17,17,0,0,1-2.35.46c-.21,0-.44,0-.66,0-1.68.23-2.32.91-2.55,2.7a6.07,6.07,0,0,1-.92,2.67A3.74,3.74,0,0,1,19,21.56a3.64,3.64,0,0,1-2.51-3.77,3.79,3.79,0,0,1,3-3.28A18.1,18.1,0,0,1,22,14.18a2.38,2.38,0,0,0,2.45-2.31,6.17,6.17,0,0,0-.18-2.49c-.29-1.24-1.2-1.82-2.72-1.93A11.54,11.54,0,0,1,19.05,7a3.53,3.53,0,0,1-2.57-3.65A3.7,3.7,0,0,1,19.23.11a3.61,3.61,0,0,1,4.18,1.83,10,10,0,0,1,.75,2.61,2.41,2.41,0,0,0,2.49,2.39,16.08,16.08,0,0,1,3.06.55,3.47,3.47,0,0,1,2.38,3.4A3.52,3.52,0,0,1,29.74,14.25Z"/><path d="M12.2,14.5a3.63,3.63,0,1,1,3.63-3.63A3.63,3.63,0,0,1,12.2,14.5Z"/><path d="M3.61,21.75a3.63,3.63,0,1,1,3.64-3.61A3.63,3.63,0,0,1,3.61,21.75Z"/><path d="M36.4,21.75A3.63,3.63,0,1,1,40,18.1,3.63,3.63,0,0,1,36.4,21.75Z"/></g></g></svg>