<svg xmlns="http://www.w3.org/2000/svg" viewBox="0 0 40 35.96"><defs><style>.cls-1{fill:#fff;}</style></defs><title>react</title><g id="Layer_2" data-name="Layer 2"><g id="Layer_1-2" data-name="Layer 1"><path class="cls-1" d="M0,17.92c0,3,2.95,5.84,7.6,7.43C6.67,30,7.43,33.79,10,35.26s6.52.46,10.22-2.77c3.61,3.1,7.25,4.33,9.8,2.85S33.4,29.8,32.45,25c4.84-1.6,7.55-4,7.55-7.07s-3-5.5-7.54-7.08c1-5,.16-8.7-2.49-10.23s-6.24-.19-9.9,3C16.25.22,12.6-.81,10,.72S6.67,6,7.6,10.8C3.11,12.37,0,15,0,17.92Z"/><path d="M31.49,12.4q-.57-.19-1.14-.36.1-.39.18-.78c.87-4.2.3-7.59-1.63-8.7s-4.88,0-7.94,2.71q-.45.39-.88.81l-.59-.54c-3.21-2.85-6.42-4-8.35-2.93s-2.4,4.25-1.62,8.24q.12.59.26,1.18c-.45.13-.89.27-1.31.41-3.76,1.31-6.16,3.37-6.16,5.5s2.58,4.41,6.5,5.75l1,.3q-.16.63-.28,1.27c-.74,3.91-.16,7,1.68,8.09s5.11,0,8.22-2.76q.37-.32.74-.68.47.45,1,.88c3,2.6,6,3.65,7.85,2.58s2.52-4.44,1.72-8.5q-.09-.47-.21-.95l.66-.21c4.07-1.35,6.72-3.53,6.72-5.76s-2.48-4.21-6.32-5.53Z"/><path class="cls-1" d="M30.6,22.25l-.6.19a35.62,35.62,0,0,0-1.8-4.5,35.6,35.6,0,0,0,1.73-4.43l1.06.33c3.29,1.13,5.29,2.8,5.29,4.09s-2.17,3.16-5.68,4.32Zm-1.46,2.89a12.85,12.85,0,0,1,.17,4.69A3.14,3.14,0,0,1,28.15,32c-1.12.65-3.51-.19-6.1-2.42q-.44-.38-.89-.81a35.66,35.66,0,0,0,3-3.78A35.43,35.43,0,0,0,29,24.28q.11.44.19.86ZM14.39,31.93A3.14,3.14,0,0,1,11.9,32c-1.12-.65-1.59-3.14-1-6.49q.11-.59.26-1.18A35.68,35.68,0,0,0,16,25a36.93,36.93,0,0,0,3,3.77q-.33.32-.68.62a12.85,12.85,0,0,1-4,2.49ZM9.26,22.24A12.86,12.86,0,0,1,5.12,20,3.14,3.14,0,0,1,3.8,17.93c0-1.29,1.93-2.94,5.14-4.06q.61-.21,1.22-.38A36.4,36.4,0,0,0,11.89,18a37,37,0,0,0-1.75,4.55ZM11,10.55c-.67-3.41-.22-6,.89-6.63s3.82.29,6.59,2.75l.53.49a36.37,36.37,0,0,0-3,3.74,37.08,37.08,0,0,0-4.74.74q-.14-.54-.24-1.09Zm15.32,3.78q-.52-.9-1.08-1.78c1.13.14,2.22.33,3.24.57a32.37,32.37,0,0,1-1.14,3.06q-.49-.93-1-1.85ZM20.06,8.25a32.45,32.45,0,0,1,2.09,2.52q-2.1-.1-4.2,0c.69-.91,1.4-1.76,2.11-2.52Zm-6.29,6.1q-.52.91-1,1.84c-.44-1-.82-2.08-1.13-3.07,1-.23,2.09-.41,3.22-.55Q14.29,13.44,13.77,14.35Zm1.12,9.07a32.31,32.31,0,0,1-3.27-.53c.31-1,.7-2.07,1.15-3.14q.48.93,1,1.84T14.89,23.41Zm5.21,4.31c-.72-.78-1.44-1.63-2.14-2.56q1,0,2.08,0t2.14,0A32.27,32.27,0,0,1,20.1,27.72Zm7.24-8a32.23,32.23,0,0,1,1.19,3.12,32.21,32.21,0,0,1-3.31.56q.56-.89,1.09-1.81t1-1.88ZM25,20.82q-.81,1.4-1.7,2.75c-1.05.08-2.14.11-3.25.11s-2.18,0-3.22-.1q-.92-1.34-1.74-2.75T13.57,18q.7-1.46,1.51-2.86h0q.81-1.4,1.72-2.74c1.06-.08,2.14-.12,3.23-.12s2.18,0,3.24.12q.9,1.34,1.71,2.73t1.53,2.85q-.71,1.46-1.53,2.88ZM28.13,3.88c1.19.69,1.65,3.45.9,7.08q-.07.35-.16.71a36.35,36.35,0,0,0-4.75-.75,35.65,35.65,0,0,0-3-3.75q.4-.38.82-.75C24.56,4.13,27,3.23,28.13,3.88Z"/><path d="M20,14.76a3.17,3.17,0,1,1-3.17,3.17A3.17,3.17,0,0,1,20,14.76"/></g></g></svg>