<svg xmlns="http://www.w3.org/2000/svg" viewBox="0 0 31 31"><defs><style>.cls-1{fill:none;stroke:#000;stroke-miterlimit:10;}</style></defs><title>js</title><g id="Layer_2" data-name="Layer 2"><g id="Layer_1-2" data-name="Layer 1"><rect class="cls-1" x="0.5" y="0.5" width="30" height="30"/><path d="M20.65,23.94a3.07,3.07,0,0,0,2.78,1.71c1.17,0,1.91-.58,1.91-1.39,0-1-.77-1.31-2.05-1.87l-.7-.3c-2-.87-3.39-2-3.39-4.25,0-2.11,1.61-3.72,4.13-3.72a4.17,4.17,0,0,1,4,2.26l-2.2,1.41a1.92,1.92,0,0,0-1.81-1.21A1.23,1.23,0,0,0,22,17.78c0,.85.52,1.19,1.73,1.71l.7.3c2.4,1,3.75,2.07,3.75,4.43,0,2.54-2,3.93-4.67,3.93a5.42,5.42,0,0,1-5.14-2.88Zm-10,.24c.44.79.85,1.45,1.81,1.45S14,25.27,14,23.86V14.27h2.82V23.9c0,2.92-1.71,4.25-4.21,4.25A4.38,4.38,0,0,1,8.4,25.57Z"/></g></g></svg>