<svg xmlns="http://www.w3.org/2000/svg" viewBox="0 0 35 33.23"><title>redux</title><g id="Layer_2" data-name="Layer 2"><g id="Layer_1-2" data-name="Layer 1"><path d="M24.25,23.2a2.5,2.5,0,0,0-.27-5h-.09a2.49,2.49,0,0,0-2.41,2.58,2.56,2.56,0,0,0,.71,1.65,15.93,15.93,0,0,1-7.3,7,12,12,0,0,1-7.26,1.38A6.19,6.19,0,0,1,3.1,28.19a6.54,6.54,0,0,1-.36-6.9,10.48,10.48,0,0,1,3-3.56c-.18-.58-.45-1.56-.58-2.27-6.46,4.68-5.79,11-3.83,14C2.83,31.67,5.81,33,9.11,33a11,11,0,0,0,2.67-.31A17.09,17.09,0,0,0,24.25,23.2Z"/><path d="M32.09,17.68A18.09,18.09,0,0,0,18,11.54H17.3a2.45,2.45,0,0,0-2.18-1.34H15a2.49,2.49,0,0,0,.09,5h.09a2.51,2.51,0,0,0,2.18-1.51h.8a17,17,0,0,1,9.49,2.9,11.93,11.93,0,0,1,4.72,5.7,6.17,6.17,0,0,1-.09,5.26,6.54,6.54,0,0,1-6.1,3.65,11.39,11.39,0,0,1-4.36-.94c-.49.45-1.38,1.16-2,1.6a13.75,13.75,0,0,0,5.75,1.38,9.67,9.67,0,0,0,8.64-4.72C35.52,25.92,35.43,21.47,32.09,17.68Z"/><path d="M9.46,24A2.5,2.5,0,0,0,12,26.37H12a2.49,2.49,0,0,0-.09-5h-.09a.76.76,0,0,0-.31,0,16.32,16.32,0,0,1-2.32-9.89,12,12,0,0,1,2.63-6.9,7.73,7.73,0,0,1,5.48-2.49c4.72-.09,6.73,5.79,6.86,8.15.58.13,1.56.45,2.23.67-.53-7.22-5-11-9.26-11C13.16,0,9.46,2.9,8,7.17a18.22,18.22,0,0,0,1.78,15.5A2,2,0,0,0,9.46,24Z"/></g></g></svg>