<svg viewBox="0 0 75 50" xmlns="http://www.w3.org/2000/svg" fill-rule="evenodd" clip-rule="evenodd" stroke-linejoin="round" stroke-miterlimit="2">
    <path fill="#71717a" d="M53.124 48.92c-3.417-.01-6.223-2.823-6.223-6.24 0-3.423 2.817-6.24 6.24-6.24 1.27 0 2.509.387 3.553 1.11v-1h3v12.11h-3v-.85c-1.048.727-2.295 1.114-3.57 1.11zm.14-9.69c-1.893 0-3.45 1.557-3.45 3.45 0 1.893 1.557 3.45 3.45 3.45 1.893 0 3.45-1.557 3.45-3.45 0-1.893-1.557-3.45-3.45-3.45zm-14.17 9.69c-3.417-.01-6.223-2.823-6.223-6.24 0-3.423 2.817-6.24 6.24-6.24 1.27 0 2.509.387 3.553 1.11v-5.07h3v16.18h-3v-.85c-1.05.722-2.295 1.109-3.57 1.11zm.14-9.69c-1.893 0-3.45 1.557-3.45 3.45 0 1.893 1.557 3.45 3.45 3.45 1.893 0 3.45-1.557 3.45-3.45 0-1.893-1.557-3.45-3.45-3.45zm-18.63 9.69c-3.42-.004-6.233-2.82-6.233-6.24 0-3.423 2.817-6.24 6.24-6.24 1.27 0 2.509.387 3.553 1.11v-5.07h3v16.18h-3v-.85c-1.046.722-2.288 1.11-3.56 1.11zm.14-9.69c-1.893 0-3.45 1.557-3.45 3.45 0 1.893 1.557 3.45 3.45 3.45 1.893 0 3.45-1.557 3.45-3.45-.005-1.891-1.56-3.445-3.45-3.45zm-14.17 9.69C3.154 48.916.34 46.1.34 42.68c0-3.423 2.817-6.24 6.24-6.24 1.27 0 2.509.387 3.553 1.11v-1h3v12.11h-3v-.85c-1.047.721-2.29 1.108-3.56 1.11zm.14-9.69h-.01c-1.893 0-3.45 1.557-3.45 3.45 0 1.893 1.557 3.45 3.45 3.45 1.893 0 3.45-1.557 3.45-3.45 0-1.889-1.551-3.445-3.44-3.45zm59.74 9.66c-3.34 0-5.56-1.63-5.65-4.15h3.07c0 .91.72 1.89 2.62 1.89 1.41 0 1.91-.64 1.91-1.19 0-.55-.45-1-1.63-1.2l-1.58-.24c-1.84-.34-4.13-.76-4.13-3.54 0-2.38 2-4 5-4s4.92 1.54 5.11 3.93h-3c-.06-1-.85-1.65-2.18-1.65-1.17 0-1.86.43-1.86 1.16s.9 1 2.07 1.2l1.92.38c2.41.52 3.5 1.52 3.5 3.52 0 2.91-2.67 3.94-5.17 3.94v-.05zm-34.82-.23h-3V36.58h3v12.08zm0-13.18h-3v-3l-8.24-14.34 10.51-6 11.76 20.33h-11v3l-.03.01zm29.53-3h-14L32.524 7.13l10.46-6.05 18.17 31.39.01.01zm-37 0h-14l-2-3.57 10.49-6 5.55 9.59-.04-.02z" fill-rule="nonzero"/>
</svg>
