<svg viewBox="0 0 128 40" xmlns="http://www.w3.org/2000/svg" fill-rule="evenodd" clip-rule="evenodd" stroke-linejoin="round" stroke-miterlimit="2">
    <path d="M5.511 24.368L9.879 20l7.426 7.426L24.731 20l4.368 4.368-11.794 11.795L5.511 24.368z" fill="#535353" fill-rule="nonzero"/>
    <path d="M5.511 20l2.184-2.184 9.61 9.61 9.61-9.61L29.099 20 17.305 31.794 5.511 20z" fill="#676767" fill-rule="nonzero"/>
    <path d="M5.511 15.632L17.305 3.838l11.794 11.794-11.794 11.794L5.511 15.632zm4.368 0l7.426-7.426.874.873-7.426 7.426-.874-.873zm9.61-5.242l-7.426 7.426.874.874 7.426-7.426-.874-.874zM14.248 20l7.425-7.426.874.874-7.426 7.426-.873-.874zm6.552-2.184l-4.368 4.368.873.874 4.369-4.369-.874-.873z" fill="#71717a"/>
    <path d="M48.8 11.88v5.989c-.937-1.326-2.354-2.103-4.091-2.103-3.132 0-5.418 2.56-5.418 6.171 0 3.634 2.286 6.194 5.418 6.194 1.737 0 3.154-.777 4.091-2.102v1.828h2.789V11.88H48.8zm-3.337 13.874c-1.989 0-3.406-1.6-3.406-3.817s1.417-3.794 3.406-3.794c1.966 0 3.337 1.577 3.337 3.794s-1.371 3.817-3.337 3.817zm14.979 2.377c3.429 0 6.332-2.834 6.332-6.194s-2.903-6.171-6.332-6.171c-3.428 0-6.331 2.811-6.331 6.171 0 3.36 2.903 6.194 6.331 6.194zm0-2.377c-1.966 0-3.611-1.737-3.611-3.817 0-2.057 1.645-3.794 3.611-3.794 1.943 0 3.589 1.737 3.589 3.794 0 2.08-1.646 3.817-3.589 3.817zm9.047 2.103h5.532c5.188 0 8.845-3.268 8.845-7.863 0-4.594-3.657-7.84-8.845-7.84h-5.532v15.703zm2.857-2.583V14.737h2.972c3.314 0 5.646 2.172 5.646 5.257 0 3.086-2.332 5.28-5.646 5.28h-2.972zm21.983 2.857c4.457 0 8.229-3.725 8.229-8.137 0-4.411-3.772-8.114-8.229-8.114-4.48 0-8.251 3.703-8.251 8.114 0 4.412 3.771 8.137 8.251 8.137zm0-2.605c-2.903 0-5.348-2.515-5.348-5.532 0-2.994 2.445-5.508 5.348-5.508 2.88 0 5.303 2.514 5.303 5.508 0 3.017-2.423 5.532-5.303 5.532zm18.505 2.605c2.308 0 4.411-.982 5.92-2.56l-2.012-1.874c-.983 1.12-2.377 1.829-3.908 1.829-2.903 0-5.349-2.515-5.349-5.532 0-2.994 2.446-5.508 5.349-5.508 1.508 0 2.925.708 3.885 1.828l2.035-1.897c-1.509-1.554-3.612-2.537-5.92-2.537-4.48 0-8.252 3.703-8.252 8.114 0 4.412 3.772 8.137 8.252 8.137z" fill="#71717a" fill-rule="nonzero"/>
</svg>
