<svg viewBox="0 0 200 50" xmlns="http://www.w3.org/2000/svg" fill-rule="evenodd" clip-rule="evenodd" stroke-linejoin="round" stroke-miterlimit="2">
  <path fill="#71717a" d="M160.7 44.1h1.9v5.2h1.1v-5.2h1.9v-.9h-4.9v.9zm5.6 5.2h1v-4.7l1.7 4.7h.9l1.7-4.7v4.7h1v-6.1h-1.5l-1.6 4.8-1.7-4.8h-1.5v6.1zm-115.1-21l-21.7 21H1.9l34.3-34.1C49 2.6 55.2.5 76.9.5h86l-18.7 18.3H79.4c-16.3 0-19.7 1.2-28.2 9.5zm90.3-6.6H79.8c-16.4 0-18.9 1.3-26.4 8.7L34.5 49.3h25.6l6.1-6.1c4-4 5.8-4.4 13.9-4.4h44.2l17.2-17.1zm6.7 27.6L197.1.5h-30.4l-48.8 48.8h30.3z" fill-rule="nonzero"/>
</svg>
