<svg xmlns="http://www.w3.org/2000/svg" viewBox="0 0 315 60">
    <path fill="#71717a" d="M96 34.07a5.59 5.59 0 0 1-.42 2.14A5.08 5.08 0 0 1 94.31 38a5.94 5.94 0 0 1-1.93 1.22 7.21 7.21 0 0 1-2.59.44 9.71 9.71 0 0 1-3.12-.51 11.31 11.31 0 0 1-2.75-1.33L85 35a9.59 9.59 0 0 0 2.38 1.27 7.23 7.23 0 0 0 2.49.46 3.46 3.46 0 0 0 1.27-.2A2.39 2.39 0 0 0 92 36a2.08 2.08 0 0 0 .51-.77 2.47 2.47 0 0 0 .17-.93 2.88 2.88 0 0 0-.13-.9 1.93 1.93 0 0 0-.51-.8 5 5 0 0 0-1.07-.8 13.51 13.51 0 0 0-1.81-.87 8.6 8.6 0 0 1-3.44-2.33 4.75 4.75 0 0 1-1-3 5 5 0 0 1 .41-2 4.87 4.87 0 0 1 1.2-1.67 6 6 0 0 1 1.94-1.16 7.31 7.31 0 0 1 2.6-.43 8.81 8.81 0 0 1 2.63.39 8.08 8.08 0 0 1 2.06 1l-1 2.81a9.11 9.11 0 0 0-.83-.5 6.7 6.7 0 0 0-.94-.42 9.32 9.32 0 0 0-1-.3 4.84 4.84 0 0 0-1-.11 3 3 0 0 0-2.18.69 2.23 2.23 0 0 0-.61 1.6 2 2 0 0 0 .75 1.59 10.28 10.28 0 0 0 2.49 1.42 16.05 16.05 0 0 1 2.3 1.21A6.41 6.41 0 0 1 95 31a3.9 3.9 0 0 1 .78 1.42 5.81 5.81 0 0 1 .22 1.65zM122.37 30a10.09 10.09 0 0 1-.72 3.84 9.33 9.33 0 0 1-2 3.06 9.08 9.08 0 0 1-3 2 10 10 0 0 1-7.51 0 8.87 8.87 0 0 1-3-2 9.32 9.32 0 0 1-1.95-3.06 10.28 10.28 0 0 1-.7-3.84 10 10 0 0 1 .73-3.86 9.15 9.15 0 0 1 2-3.06 9.41 9.41 0 0 1 3-2 9.81 9.81 0 0 1 3.77-.72 9.52 9.52 0 0 1 3.74.72 9 9 0 0 1 4.91 5.08 10.35 10.35 0 0 1 .73 3.84zM119 30a7.89 7.89 0 0 0-.45-2.7 6.8 6.8 0 0 0-1.24-2.17 5.25 5.25 0 0 0-1.9-1.42 5.75 5.75 0 0 0-2.43-.51 5.87 5.87 0 0 0-2.45.51 5.37 5.37 0 0 0-1.91 1.42 6.8 6.8 0 0 0-1.24 2.17 7.88 7.88 0 0 0-.44 2.7 8 8 0 0 0 .44 2.71 6.59 6.59 0 0 0 1.24 2.15 5.69 5.69 0 0 0 4.36 2 5.64 5.64 0 0 0 4.33-2 6.59 6.59 0 0 0 1.24-2.15A8 8 0 0 0 119 30zm26.65 2.18a8.67 8.67 0 0 1-.53 3.17 6.56 6.56 0 0 1-1.51 2.35 6.26 6.26 0 0 1-2.35 1.45 9.3 9.3 0 0 1-3.13.5 7.51 7.51 0 0 1-5.47-1.91 7.44 7.44 0 0 1-1.95-5.56V20.65h3.19V32a5.09 5.09 0 0 0 1.1 3.56 4.79 4.79 0 0 0 6.31 0 5.05 5.05 0 0 0 1.14-3.6V20.65h3.18zm23.85 7.52l-11.71-12.34v12h-3.19V20.4l.51-.1 11.56 12.16V20.65h3.18v19zm25.77-9.87a10.53 10.53 0 0 1-.66 3.73 8.46 8.46 0 0 1-2 3.07 9.6 9.6 0 0 1-3.38 2.09 13.49 13.49 0 0 1-4.82.78h-1.44l-1.31-.06-1.28-.09c-.42 0-.87-.08-1.35-.13V20.83c.92-.1 1.78-.18 2.59-.23s1.68-.07 2.61-.07a14.25 14.25 0 0 1 4.85.74 9.92 9.92 0 0 1 3.44 2 8.08 8.08 0 0 1 2.06 3 9.43 9.43 0 0 1 .69 3.56zm-3.41 0a7.52 7.52 0 0 0-.46-2.65 5.47 5.47 0 0 0-1.4-2.05 6.43 6.43 0 0 0-2.27-1.33 9.65 9.65 0 0 0-3.14-.47 16.29 16.29 0 0 0-2.39.15v13a7.76 7.76 0 0 0 1.17.13h1.5a8.57 8.57 0 0 0 3.12-.51 6 6 0 0 0 2.16-1.43 5.66 5.66 0 0 0 1.28-2.17 8.78 8.78 0 0 0 .43-2.67zm15.8 6.61h9.69v2.9h-14.68l-.13-.38 9.92-15.4h-9.26v-2.91h14.26l.12.39zm17.96 2.9V20.65h3.18v18.69zm24.98-12.51a6.79 6.79 0 0 1-.49 2.62 5.73 5.73 0 0 1-1.44 2.05 6.68 6.68 0 0 1-2.34 1.34 9.38 9.38 0 0 1-3.17.49h-1.86v6.09h-3.19V20.83a39.82 39.82 0 0 1 4.74-.3 10.45 10.45 0 0 1 3.37.49 7.29 7.29 0 0 1 2.43 1.36 5.31 5.31 0 0 1 1.47 2 6.26 6.26 0 0 1 .48 2.45zm-3.31.1a3.68 3.68 0 0 0-.24-1.32 3.3 3.3 0 0 0-2-1.87 4.79 4.79 0 0 0-1.71-.28 14 14 0 0 0-2.09.15v6.84c.32 0 .62.06.91.07s.58 0 .87 0a4.39 4.39 0 0 0 3.19-1 3.5 3.5 0 0 0 1.07-2.59zm23.71-.1a6.79 6.79 0 0 1-.5 2.62 5.61 5.61 0 0 1-1.5 2.05 6.72 6.72 0 0 1-2.33 1.34 9.48 9.48 0 0 1-3.18.49h-1.86v6.09h-3.19V20.83a40 40 0 0 1 4.74-.3 10.45 10.45 0 0 1 3.37.49 7.45 7.45 0 0 1 2.45 1.36 5.39 5.39 0 0 1 1.46 2 6.27 6.27 0 0 1 .54 2.45zm-3.32.1a3.68 3.68 0 0 0-.24-1.32 3.21 3.21 0 0 0-.73-1.1 3.35 3.35 0 0 0-1.22-.77 4.75 4.75 0 0 0-1.71-.28 14 14 0 0 0-2.09.15v6.84c.32 0 .63.06.92.07s.58 0 .86 0a4.39 4.39 0 0 0 3.19-1 3.5 3.5 0 0 0 1-2.59zm11.17 12.41V20.65h11.4v2.91H282v4.9h7.42v2.8H282v5.18h8.21v2.9zm30.4 0l-4.08-6.73h-2.86v6.75h-3.18V20.83c.74-.08 1.51-.15 2.3-.21s1.67-.09 2.62-.09a11.3 11.3 0 0 1 3.43.46 6.8 6.8 0 0 1 2.38 1.25 4.75 4.75 0 0 1 1.39 1.86 5.89 5.89 0 0 1 .45 2.32 5.69 5.69 0 0 1-.95 3.24 6.11 6.11 0 0 1-2.7 2.16l4.9 7.52zm-.92-12.77a2.91 2.91 0 0 0-1-2.31 4.27 4.27 0 0 0-2.86-.88h-1.12a6.77 6.77 0 0 0-1 .13v6.37l.91.08h.93a4.62 4.62 0 0 0 3.14-.92 3.19 3.19 0 0 0 1-2.47zM47.17 43.83a1 1 0 0 1-.66-.25L35.35 33.8a1 1 0 0 1 1.32-1.5l9.5 8.32V26.28a1 1 0 0 1 2 0v16.55a1 1 0 0 1-.59.91 1 1 0 0 1-.41.09zM16.79 33.76a1 1 0 0 1-1-1V16.21a1 1 0 0 1 1.66-.75l11.16 9.78a1 1 0 1 1-1.32 1.5l-9.5-8.32v14.34a1 1 0 0 1-1 1z"/>
    <path fill="#71717a" d="M22.45 44.79c-2.52 0-4.66-1.57-6.52-4.81a1 1 0 0 1 .36-1.37 1 1 0 0 1 1.37.37c1.5 2.6 3 3.81 4.79 3.81 4.05 0 6.36-6.67 8.59-13.12 2.45-7.11 5-14.46 10.47-14.46 2.53 0 4.66 1.57 6.53 4.8a1 1 0 0 1-1.74 1c-1.49-2.59-3-3.8-4.79-3.8-4 0-6.35 6.67-8.58 13.12-2.46 7.11-5 14.46-10.48 14.46z"/>
    <path fill="#71717a" d="M29.75 59.83h-.08a29.92 29.92 0 0 1 0-59.66 1 1 0 0 1 .15 2 27.92 27.92 0 0 0 0 55.68 1 1 0 0 1-.07 2zm4.48 0a1 1 0 0 1-1-.92 1 1 0 0 1 .92-1.08 27.91 27.91 0 0 0 0-55.66 1 1 0 0 1-.92-1.08 1 1 0 0 1 1.08-.92 29.92 29.92 0 0 1 0 59.66z"/>
</svg>
